<?xml version="1.0" encoding="UTF-8" standalone="no"?>
<!-- Created with Inkscape (http://www.inkscape.org/) -->

<svg
   width="125"
   height="125"
   viewBox="0 0 125 125"
   version="1.1"
   id="svg1"
   inkscape:version="1.3 (0e150ed6c4, 2023-07-21)"
   sodipodi:docname="puzzlePiece_14.svg"
   inkscape:export-filename="puzzlePiece_four.png"
   inkscape:export-xdpi="96"
   inkscape:export-ydpi="96"
   xmlns:inkscape="http://www.inkscape.org/namespaces/inkscape"
   xmlns:sodipodi="http://sodipodi.sourceforge.net/DTD/sodipodi-0.dtd"
   xmlns="http://www.w3.org/2000/svg"
   xmlns:svg="http://www.w3.org/2000/svg">
  <sodipodi:namedview
     id="namedview1"
     pagecolor="#ffffff"
     bordercolor="#666666"
     borderopacity="1.0"
     inkscape:showpageshadow="2"
     inkscape:pageopacity="0.0"
     inkscape:pagecheckerboard="0"
     inkscape:deskcolor="#d1d1d1"
     inkscape:document-units="px"
     inkscape:zoom="5.657"
     inkscape:cx="45.78"
     inkscape:cy="64.96"
     inkscape:window-width="1920"
     inkscape:window-height="1017"
     inkscape:window-x="-8"
     inkscape:window-y="-8"
     inkscape:window-maximized="1"
     inkscape:current-layer="layer1" />
  <defs
     id="defs1" />
  <g
     inkscape:label="Ebene 1"
     inkscape:groupmode="layer"
     id="layer1">
    <path
       id="rect1"
       style="fill:#000000;stroke-width:0.996862;stroke-linecap:square;stroke-opacity:0"
       d="M 25 25 L 25 125 L 64.93 125 C 75.03 125 49.43 99.97 74.43 99.97 C 99.54 99.97 75.03 125 85.04 125 L 124.1 125 L 124.1 84.74 C 124.1 74.64 99.09 100.2 99.09 75.24 C 99.09 50.14 124.1 74.64 124.1 64.64 L 124.1 25 L 25 25 z " />
    <path
       style="fill:#000000;fill-opacity:1;stroke:#000000;stroke-width:1.67677;stroke-linecap:butt;stroke-linejoin:miter;stroke-miterlimit:10;stroke-opacity:1"
       d="m 25.66,84.65 c 0,-10.1 -24.8968,15.65 -24.8968,-9.5 0,-25 24.8968,-0.6 24.8968,-10.6"
       id="path924-9-8"
       inkscape:connector-curvature="0"
       sodipodi:nodetypes="csc" />
    <path
       style="fill:#000000;fill-opacity:1;stroke:#000000;stroke-width:1.65997;stroke-linecap:butt;stroke-linejoin:miter;stroke-miterlimit:10;stroke-opacity:1"
       d="m 124.1,84.76 c 0,-10.11 -24.39,15.64 -24.39,-9.51 0,-25.02 24.39,-0.6 24.39,-10.61"
       id="path924-9-8-7"
       inkscape:connector-curvature="0"
       sodipodi:nodetypes="csc" />
    <path
       style="fill:#000000;fill-opacity:1;stroke:#000000;stroke-width:1.67677;stroke-linecap:butt;stroke-linejoin:miter;stroke-miterlimit:10;stroke-opacity:1"
       d="m 65.36,25.66 c 10.1,0 -15.64,-24.8288 9.5,-24.8288 25,0 0.6,24.8288 10.6,24.8288"
       id="path924-9-2"
       inkscape:connector-curvature="0"
       sodipodi:nodetypes="csc" />
  </g>
</svg>
